#!OML:ASF F:\VICON\USERDATA\INSTALL\rory3\rory3.ASF
:FULLY-SPECIFIED
:DEGREES
63
root 0.6258575759694177 17.871762231702768 24.327378414251847 -3.079739929163125 -1.731173639322666 1.563373929564389
lfemur -1.1793702212731745 -3.658653058906956 -27.102988304007237
ltibia 24.67066392999882
lfoot -7.501957878157887 2.016975049832511
ltoes -4.367320742111224
rfemur -25.04161467294736 0.887104342059525 20.61126169931786
rtibia 44.15412536441045
rfoot -5.833639728655768 -6.6066673784833885
rtoes 5.339337280593909
lowerback 10.191540230114914 -0.07839194915592906 -2.474482317228321
upperback 0.7218968651894064 0.5534387263222657 0.9600310975861401
thorax -4.748250210126704 0.2503940763378181 2.3514198286405583
lowerneck -16.55416932493794 -2.916193035287189 -1.9493819774607126
upperneck 20.325533851936974 -3.504259389009578 1.3874877657387863
head 9.300425733756095 -1.773527257428306 0.1967705983858125
lclavicle -1.9521159855955038e-15 9.07805010051715e-16
lhumerus -28.418618080322 -0.43835109694407004 82.9299654989474
lradius 23.281245647730966
lwrist 4.40976362102868
lhand -27.052772391267425 23.467466203166765
lfingers 7.12502
lthumb -0.21341062012864503 54.16264038341599
rclavicle -1.9534744340276577e-15 9.0655389294951e-16
rhumerus -29.949882064674927 -18.880022310861648 -79.10185735101793
rradius 26.030791464810367
rwrist 5.412643527298843
rhand -17.773647415890704 22.727560806973283
rfingers 7.12502
rthumb 8.403320749315322 -7.294381609737506
64
root 0.5835093692819759 17.843476506221116 24.89063994587499 -2.519884853330231 -1.0053384723472396 1.8623397489238487
lfemur 1.830189190543118 -3.314007191031565 -27.103831252378747
ltibia 21.885007654199136
lfoot -7.013398657205077 1.7788038269425874
ltoes -4.4765379685978255
rfemur -25.90012972243376 2.203757455621344 19.838770058074616
rtibia 37.76643480246234
rfoot -6.2114596709050005 -7.081836500279761
rtoes 4.4228938132140305
lowerback 10.055335943581131 -0.34296260730973904 -2.9838811268296306
upperback 0.7313906952725939 0.03328501382849969 0.9991733757436738
thorax -4.682880334622772 0.11396672218232895 2.525083730240991
lowerneck -16.55311532832385 -2.913876279541011 -1.9410753338519124
upperneck 20.240952181488833 -3.545619859990197 1.4292642394107826
head 9.293937676857938 -1.7790227017885911 0.2034082543294759
lclavicle -1.952115985594662e-15 9.078050100524902e-16
lhumerus -26.451146028857224 -2.1450405389643468 83.00787387705381
lradius 23.949150956931867
lwrist 4.786172686632042
lhand -27.041130943999644 23.496586189178068
lfingers 7.12502
lthumb -0.21914943383746055 54.138544658562466
rclavicle -1.953474434027507e-15 9.065538929496487e-16
rhumerus -30.36552727341801 -19.650591251895335 -78.68448606194491
rradius 25.73453730796384
rwrist 5.668920719608323
rhand -17.761676786720777 22.77666804975315
rfingers 7.12502
rthumb 8.39447684697722 -7.294418957451381
65
root 0.5275206514130393 17.798832817061456 25.189874106908547 -1.9930683464655914 -0.3668835496010945 2.0952944598197836
lfemur 5.107641159037415 -2.703770914183288 -27.214921473597315
ltibia 19.7399669494307
lfoot -6.400596901549926 1.0858516853924107
ltoes -4.376630981799414
rfemur -26.410402302560577 3.3410669149060404 18.94138228731027
rtibia 32.32711330493194
rfoot -6.659497748914504 -7.489241144562465
rtoes 3.8182557084995032
lowerback 9.900374677576082 -0.5369320923945574 -3.3806351147015157
upperback 0.731846181845138 -0.4023896019432325 1.0419810090338308
thorax -4.593455325463249 0.06264375442575298 2.8429115176185116
lowerneck -16.580574046021262 -2.927334813095171 -1.97463139910433
upperneck 20.223042934945543 -3.5810782248140347 1.51270128718875
head 9.29125335549817 -1.785325400144065 0.21920717627389663
lclavicle -1.952115985594699e-15 9.07805010052456e-16
lhumerus -24.702213136280903 -3.6899420344711915 82.98052936206689
lradius 24.51708992523337
lwrist 5.188686091892384
lhand -27.07681077595639 23.430348075422806
lfingers 7.12502
lthumb -0.16191522596034685 54.26977007367951
rclavicle -1.9534744340275784e-15 9.065538929495827e-16
rhumerus -30.85758714131751 -20.65911248431907 -78.16452873073442
rradius 25.302606863976983
rwrist 5.90982452461864
rhand -17.742909183576668 22.81642028306574
rfingers 7.12502
rthumb 8.400428317922024 -7.280979828038321
66
root 0.4634718409207633 17.73896704075232 25.825027568288014 -1.6031139326207295 0.1605237527320873 2.2976502995514907
lfemur 8.735479697111728 -2.6015364676322963 -27.366469544265087
ltibia 19.347533071328584
lfoot -4.984542024704685 0.23286549284959257
ltoes -3.940918202693226
rfemur -25.372189806450315 4.232798662870351 19.06094608844494
rtibia 28.816227638757262
rfoot -7.03502949541613 -7.655897562874206
rtoes 3.410419514972918
lowerback 9.74456065229477 -0.6425579759951782 -3.5172228711454796
upperback 0.7222389985389064 -0.7355105900817032 1.0883344458150424
thorax -4.557701875572436 -0.048913513543980325 2.8245007201879178
lowerneck -16.55830011051102 -2.9254977963220474 -1.9767478293413787
upperneck 20.206404525229157 -3.62656701578577 1.5512868076548298
head 9.279393927942628 -1.800263120132002 0.22412237904442875
lclavicle -1.95211598559485e-15 9.078050100523174e-16
lhumerus -23.248299292559963 -4.8751917944819105 82.91669079293065
lradius 24.98278433866657
lwrist 5.550681490724729
lhand -27.06007330988688 23.47286448879702
lfingers 7.12502
lthumb -0.18937430840188801 54.207548260326256
rclavicle -1.95347443402746e-15 9.06553892949692e-16
rhumerus -31.329176335217504 -21.759011922243655 -77.5400750483311
rradius 24.812925995282313
rwrist 6.331270093021075
rhand -17.72518130783387 22.863136952989308
rfingers 7.12502
rthumb 8.414758203021957 -7.2330744466272385
